<svg width="25" height="24" viewBox="0 0 25 24" fill="none" xmlns="http://www.w3.org/2000/svg">
<g id="Apple Logo">
<path id="Vector" d="M18.6158 11.9931C18.6158 9.06063 20.9988 7.73813 21.0988 7.67513C19.8008 5.67863 17.7038 5.44163 16.9178 5.44113C15.0963 5.44113 13.4863 6.45213 12.6253 6.45213C11.7268 6.45213 10.4163 5.39163 8.94376 5.44113C7.02226 5.47863 5.26226 6.61413 4.27676 8.28663C3.57826 9.48463 3.30326 10.8951 3.32876 12.3301C3.32976 12.3866 3.33726 12.4441 3.33876 12.5006H18.6598C18.6393 12.3361 18.6213 12.1691 18.6158 11.9931Z" fill="#0883D9"/>
<path id="Vector_2" d="M15.7823 3.5315C16.6303 2.5955 17.1048 1.3105 17.0298 0C15.8568 0 14.4968 0.686 13.6358 1.697C12.9618 2.533 12.2383 3.8435 12.5003 5.1535C13.7108 5.3035 15.0213 4.5425 15.7823 3.5315Z" fill="#0883D9"/>
<path id="Vector_3" d="M9.25537 22.5C10.6409 22.5 11.1524 21.576 12.9619 21.576C14.6469 21.576 15.1709 22.5 16.6309 22.5C18.1659 22.5 19.1769 21.1025 20.0874 19.7165C21.2349 18.1075 21.6224 16.5725 21.6719 16.5095C21.6249 16.5095 19.0284 15.4535 18.6589 12.5H3.33887C3.41737 15.1555 4.45287 17.895 5.67437 19.6545C6.63487 21.0275 7.72037 22.5 9.25537 22.5Z" fill="#0370C8"/>
</g>
</svg>
